<?xml version="1.0" encoding="UTF-8" standalone="no"?>
<svg xmlns="http://www.w3.org/2000/svg" version="1.2" baseProfile="tiny" viewBox="0.00 0.00 262.00 271.00">
<path fill="#f4dffe" d="
  M 119.62 88.88
  C 124.40 92.75 129.01 98.40 134.26 101.75
  A 0.88 0.87 -52.9 0 1 134.44 103.07
  L 120.42 118.57
  A 0.85 0.85 0.0 0 1 119.22 118.63
  L 87.51 90.26
  Q 86.60 89.45 87.42 88.55
  Q 120.34 52.19 152.67 16.41
  Q 158.12 10.38 163.12 4.09
  Q 163.63 3.45 164.23 4.00
  L 257.63 87.90
  Q 258.77 88.92 257.75 90.06
  L 181.85 174.39
  A 0.40 0.40 0.0 0 1 181.29 174.42
  L 149.04 145.72
  Q 148.25 145.02 148.95 144.24
  L 163.11 128.42
  Q 163.44 128.05 163.80 128.39
  L 179.28 142.70
  Q 179.73 143.12 180.15 142.66
  L 225.52 92.30
  Q 227.11 90.53 225.34 88.95
  L 166.49 36.23
  Q 165.99 35.77 165.48 36.23
  Q 162.46 38.93 159.13 42.63
  Q 139.70 64.20 119.45 86.61
  A 1.57 1.57 0.0 0 0 119.62 88.88
  Z"
/>
<rect fill="#f4dffe" x="-11.24" y="-76.98" transform="translate(130.96,135.65) rotate(42.0)" width="22.48" height="153.96" rx="1.08"/>
<path fill="#f4dffe" d="
  M 83.69 128.67
  A 1.52 1.52 0.0 0 0 81.55 128.79
  Q 60.53 152.16 41.23 173.72
  Q 38.45 176.83 36.18 179.89
  A 0.78 0.78 0.0 0 0 36.29 180.93
  L 95.50 234.15
  Q 96.77 235.29 97.92 234.02
  L 143.62 183.45
  Q 143.89 183.15 143.61 182.85
  Q 136.23 175.26 127.86 168.75
  Q 127.38 168.38 127.79 167.93
  L 142.00 152.10
  A 0.98 0.98 0.0 0 1 143.39 152.03
  L 174.91 180.43
  Q 175.78 181.22 174.99 182.09
  L 99.09 266.42
  Q 98.70 266.86 98.24 266.49
  Q 95.30 264.11 92.58 261.67
  Q 52.11 225.26 11.56 188.94
  Q 7.85 185.61 4.41 182.00
  Q 3.97 181.53 4.40 181.05
  L 80.85 96.07
  Q 81.21 95.67 81.59 96.05
  Q 91.10 105.40 101.14 113.99
  C 104.60 116.94 109.13 121.75 113.77 124.94
  Q 114.41 125.38 113.89 125.96
  L 99.65 141.93
  A 0.67 0.66 -48.4 0 1 98.72 141.99
  L 83.69 128.67
  Z"
/>
</svg>
