<?xml version="1.0" encoding="UTF-8" standalone="no"?>
<svg xmlns="http://www.w3.org/2000/svg" version="1.2" baseProfile="tiny" viewBox="0.00 0.00 170.00 271.00">
<path stroke="#dfc8ea" stroke-opacity="0.949" stroke-width="2.00" fill="none" stroke-linecap="butt" vector-effect="non-scaling-stroke" d="
  M 119.72 236.89
  Q 119.95 236.92 120.12 236.97
  Q 120.79 237.19 120.18 237.43
  Q 119.99 237.51 119.74 237.53
  A 0.15 0.15 0.0 0 0 119.69 237.81
  L 120.61 238.22
  Q 121.05 238.42 121.46 238.16
  Q 131.53 231.72 135.08 220.38"
/>
<path fill="#f4dffe" d="
  M 102.75 264.90
  C 55.68 274.35 11.35 247.00 4.64 197.92
  C 3.61 190.41 3.98 181.37 4.01 173.12
  C 4.02 171.59 4.62 170.03 4.72 168.75
  Q 7.92 130.78 29.54 100.05
  Q 42.49 81.65 51.27 68.93
  C 65.23 48.70 76.29 27.45 84.50 4.22
  A 0.43 0.42 49.8 0 1 85.32 4.29
  C 85.83 7.18 87.07 9.76 88.04 12.23
  Q 100.96 45.27 118.61 69.66
  C 140.82 100.36 159.17 124.99 163.96 160.25
  C 166.01 175.30 166.92 189.69 163.52 205.58
  C 156.96 236.21 133.46 258.73 102.75 264.90
  Z
  M 119.72 236.89
  Q 119.95 236.92 120.12 236.97
  Q 120.79 237.19 120.18 237.43
  Q 119.99 237.51 119.74 237.53
  A 0.15 0.15 0.0 0 0 119.69 237.81
  L 120.61 238.22
  Q 121.05 238.42 121.46 238.16
  Q 131.53 231.72 135.08 220.38
  L 138.05 215.12
  Q 138.47 214.37 137.76 214.86
  C 130.05 220.14 123.13 224.18 113.72 226.02
  C 96.64 229.37 82.75 219.42 79.35 202.41
  C 78.49 198.13 78.59 190.67 79.77 186.47
  C 81.84 179.08 83.84 172.24 82.84 164.43
  C 81.05 150.51 70.20 142.11 56.54 142.86
  C 41.53 143.67 30.38 155.85 26.03 169.79
  C 15.15 204.75 35.68 236.06 69.46 245.65
  C 86.03 250.36 105.94 247.94 119.72 236.89
  Z"
/>
<path fill="#c8afd4" fill-opacity="0.894" d="
  M 135.08 220.38
  Q 131.53 231.72 121.46 238.16
  Q 121.05 238.42 120.61 238.22
  L 119.69 237.81
  A 0.15 0.15 0.0 0 1 119.74 237.53
  Q 119.99 237.51 120.18 237.43
  Q 120.79 237.19 120.12 236.97
  Q 119.95 236.92 119.72 236.89
  Q 128.70 230.05 135.08 220.38
  Z"
/>
</svg>
