<?xml version="1.0" encoding="UTF-8" standalone="no"?>
<svg xmlns="http://www.w3.org/2000/svg" version="1.2" baseProfile="tiny" viewBox="0.00 0.00 277.00 270.00">
<path fill="#f4dffe" d="
  M 46.88 37.29
  A 0.39 0.39 0.0 0 1 46.78 36.63
  C 63.59 22.60 80.29 11.96 101.45 5.59
  Q 105.75 4.30 109.66 3.83
  Q 110.75 3.70 109.99 4.50
  Q 91.85 23.49 79.44 46.61
  A 1.87 1.86 21.8 0 1 77.31 47.52
  Q 61.80 43.29 46.88 37.29
  Z"
/>
<path fill="#f4dffe" d="
  M 230.34 36.64
  Q 231.00 37.24 230.14 37.48
  Q 229.84 37.56 228.86 37.94
  Q 214.11 43.75 198.80 47.86
  A 0.65 0.64 69.0 0 1 198.05 47.52
  C 189.29 30.39 179.43 18.56 167.84 5.06
  Q 166.46 3.46 168.51 3.95
  Q 203.68 12.37 230.34 36.64
  Z"
/>
<path fill="#f4dffe" d="
  M 147.34 4.91
  Q 169.04 25.06 183.70 50.62
  A 0.34 0.33 -20.3 0 1 183.47 51.11
  Q 169.76 53.66 155.75 54.73
  Q 150.11 55.16 146.65 54.97
  A 0.68 0.68 0.0 0 1 146.00 54.29
  L 146.00 6.06
  A 1.55 1.35 80.6 0 1 146.86 4.67
  Q 147.02 4.61 147.34 4.91
  Z"
/>
<path fill="#f4dffe" d="
  M 94.55 51.20
  A 0.87 0.87 0.0 0 1 93.96 49.92
  Q 106.68 27.63 125.10 9.61
  Q 127.62 7.15 129.43 6.05
  Q 131.13 5.03 131.12 7.02
  L 130.95 54.30
  Q 130.95 54.93 130.32 54.97
  Q 128.13 55.10 125.26 54.96
  Q 109.71 54.16 94.55 51.20
  Z"
/>
<path fill="#f4dffe" d="
  M 71.91 60.85
  A 0.55 0.55 0.0 0 1 72.29 61.60
  Q 62.00 86.10 58.61 112.47
  C 58.11 116.35 57.92 122.33 57.32 127.27
  Q 57.23 127.96 56.54 127.96
  L 4.64 128.02
  A 0.44 0.44 0.0 0 1 4.20 127.53
  Q 5.01 119.94 6.21 112.54
  Q 11.54 79.71 32.16 52.92
  Q 34.18 50.29 36.00 48.70
  Q 36.38 48.37 36.84 48.58
  Q 53.81 56.35 71.91 60.85
  Z"
/>
<path fill="#f4dffe" d="
  M 241.34 48.94
  Q 243.22 50.55 244.31 51.94
  Q 265.75 79.24 271.36 113.41
  C 271.89 116.69 272.25 122.70 273.48 127.37
  A 0.51 0.51 0.0 0 1 272.99 128.00
  L 220.98 128.00
  A 1.11 1.10 -1.4 0 1 219.87 126.95
  Q 218.10 93.02 204.97 61.74
  Q 204.74 61.18 205.32 61.02
  Q 223.20 56.02 240.28 48.77
  A 1.03 1.02 53.9 0 1 241.34 48.94
  Z"
/>
<path fill="#f4dffe" d="
  M 189.52 64.73
  A 1.29 1.29 0.0 0 1 190.94 65.48
  Q 203.93 95.20 205.32 127.64
  A 0.31 0.31 0.0 0 1 205.01 127.97
  L 147.19 128.01
  Q 146.00 128.01 146.00 126.82
  L 146.00 71.00
  A 0.82 0.82 0.0 0 1 146.68 70.19
  C 152.83 69.09 160.10 69.05 165.08 68.46
  Q 177.53 66.99 189.52 64.73
  Z"
/>
<path fill="#f4dffe" d="
  M 71.83 126.80
  Q 73.53 94.54 86.54 65.04
  A 0.56 0.54 16.5 0 1 87.15 64.72
  Q 99.10 66.97 111.10 68.36
  C 116.07 68.94 124.03 69.17 130.49 70.15
  A 0.60 0.59 -85.5 0 1 130.99 70.74
  L 131.02 127.50
  Q 131.02 128.01 130.50 128.01
  L 72.94 127.97
  A 1.11 1.11 0.0 0 1 71.83 126.80
  Z"
/>
<path fill="#f4dffe" d="
  M 205.25 209.28
  A 0.45 0.45 0.0 0 1 204.96 208.68
  Q 215.41 183.86 218.50 156.97
  Q 219.33 149.78 220.31 142.59
  A 0.68 0.68 0.0 0 1 220.98 142.00
  L 272.63 142.00
  Q 273.36 142.00 273.26 142.71
  Q 272.43 148.54 271.62 154.23
  Q 266.20 192.28 241.67 221.60
  Q 241.30 222.04 240.78 221.81
  Q 223.43 214.38 205.25 209.28
  Z"
/>
<path fill="#f4dffe" d="
  M 36.47 221.81
  A 0.74 0.73 -31.4 0 1 35.61 221.61
  Q 7.11 187.39 4.35 142.70
  Q 4.31 142.00 5.01 142.00
  L 56.49 142.00
  Q 56.97 142.00 57.07 142.47
  C 58.05 146.94 57.97 152.46 58.37 155.81
  Q 61.61 183.20 72.32 208.66
  Q 72.54 209.18 71.99 209.33
  Q 53.76 214.25 36.47 221.81
  Z"
/>
<path fill="#f4dffe" d="
  M 131.01 142.63
  L 131.04 200.36
  Q 131.04 200.85 130.56 200.86
  Q 108.94 201.13 87.77 205.59
  Q 86.80 205.80 86.40 204.89
  Q 74.76 178.81 72.30 149.74
  Q 71.90 145.12 71.99 142.71
  Q 72.02 142.02 72.71 142.02
  L 130.38 141.99
  A 0.64 0.63 -90.0 0 1 131.01 142.63
  Z"
/>
<path fill="#f4dffe" d="
  M 190.07 205.64
  C 175.51 202.87 161.55 201.01 146.65 200.99
  Q 145.98 200.99 145.98 200.33
  L 146.01 142.50
  A 0.50 0.49 -90.0 0 1 146.50 142.00
  L 204.53 142.00
  Q 205.13 142.00 205.13 142.61
  C 204.98 163.33 199.07 186.63 190.82 205.25
  Q 190.60 205.74 190.07 205.64
  Z"
/>
<path fill="#f4dffe" d="
  M 182.58 219.12
  Q 183.00 219.21 183.47 219.27
  Q 183.89 219.32 183.67 219.69
  C 173.40 237.29 161.71 251.28 146.98 265.67
  Q 145.97 266.66 145.97 265.25
  L 146.02 215.97
  A 1.21 1.20 3.4 0 1 147.37 214.78
  C 159.10 216.16 170.88 216.73 182.58 219.12
  Z"
/>
<path fill="#f4dffe" d="
  M 126.85 262.29
  Q 107.02 243.80 93.91 219.88
  Q 93.63 219.38 94.19 219.25
  Q 105.17 216.66 116.34 216.08
  C 120.29 215.87 125.62 214.97 130.30 215.00
  Q 131.00 215.00 131.00 215.69
  L 131.00 265.31
  Q 131.00 266.20 130.28 265.68
  C 129.07 264.78 127.65 263.03 126.85 262.29
  Z"
/>
<path fill="#f4dffe" d="
  M 78.31 222.45
  Q 78.67 222.34 78.85 222.68
  Q 91.42 246.32 109.92 265.66
  A 0.38 0.38 0.0 0 1 109.55 266.29
  C 107.94 265.87 106.19 265.72 104.71 265.32
  Q 71.90 256.52 46.87 233.62
  Q 46.39 233.19 47.00 232.95
  Q 62.37 226.89 78.31 222.45
  Z"
/>
<path fill="#f4dffe" d="
  M 230.28 232.85
  Q 230.61 232.98 230.37 233.24
  Q 229.19 234.51 227.77 235.76
  Q 204.30 256.57 174.05 265.03
  Q 170.88 265.91 167.81 265.96
  A 0.40 0.39 21.7 0 1 167.52 265.29
  Q 185.52 246.50 197.89 223.58
  A 1.69 1.68 -68.0 0 1 199.81 222.76
  Q 215.30 227.04 230.28 232.85
  Z"
/>
</svg>
