<?xml version="1.0" encoding="UTF-8" standalone="no"?>
<svg xmlns="http://www.w3.org/2000/svg" version="1.2" baseProfile="tiny" viewBox="0.00 0.00 237.00 247.00">
<path fill="#f2dcff" d="
  M 124.37 186.97
  C 101.81 186.39 78.28 176.69 57.91 179.81
  C 47.07 181.47 36.06 186.25 26.43 191.47
  Q 25.99 191.71 25.76 192.16
  C 18.94 205.60 17.16 222.18 18.10 237.03
  C 18.52 243.64 10.22 244.12 6.05 241.70
  C 0.69 238.58 6.44 218.30 9.01 210.72
  Q 12.92 199.20 21.10 188.42
  Q 21.40 188.02 21.37 187.52
  C 20.07 164.53 21.31 141.33 30.69 120.16
  C 47.37 82.55 79.81 64.11 119.95 57.45
  C 153.51 51.88 200.79 42.28 212.86 4.29
  A 0.27 0.27 0.0 0 1 213.38 4.29
  C 213.83 5.75 213.89 7.43 214.47 8.76
  C 229.45 43.21 238.80 85.37 228.88 122.20
  C 219.14 158.34 189.30 179.74 153.79 186.33
  C 148.56 187.30 142.31 186.77 136.51 187.57
  C 132.35 188.15 128.54 187.08 124.37 186.97
  Z
  M 128.55 122.23
  C 155.42 117.83 176.56 105.45 192.26 82.78
  C 196.43 76.75 199.17 70.53 200.90 63.60
  A 0.29 0.29 0.0 0 0 200.35 63.40
  C 183.96 96.68 155.29 110.86 119.79 115.51
  C 82.69 120.37 46.65 134.88 34.05 174.01
  A 0.47 0.47 0.0 0 0 34.92 174.35
  C 48.41 145.11 79.04 129.33 109.67 125.09
  Q 119.13 123.77 128.55 122.23
  Z"
/>
</svg>
