<?xml version="1.0" encoding="UTF-8" standalone="no"?>
<svg xmlns="http://www.w3.org/2000/svg" version="1.2" baseProfile="tiny" viewBox="0.00 0.00 221.00 274.00">
<g stroke-width="2.00" fill="none" stroke-linecap="butt">
<path stroke="#e9c4fa" vector-effect="non-scaling-stroke" d="
  M 10.21 132.50
  Q 10.51 133.14 11.15 133.61
  Q 11.57 133.92 11.47 134.43
  Q 9.51 144.27 8.51 154.25
  C 8.27 156.64 8.82 159.41 8.29 162.46
  Q 7.30 168.10 8.53 173.73
  C 8.80 174.99 8.29 177.27 8.47 178.83
  C 13.03 218.50 37.76 248.87 77.52 257.47
  Q 95.04 261.26 110.25 261.56"
/>
<path stroke="#bb91d1" stroke-opacity="0.976" vector-effect="non-scaling-stroke" d="
  M 110.25 261.56
  Q 112.18 246.86 111.48 239.00
  Q 110.77 231.09 110.69 223.13
  A 0.35 0.35 0.0 0 0 110.36 222.78
  L 110.04 222.75"
/>
<path stroke="#e9c4fa" vector-effect="non-scaling-stroke" d="
  M 110.04 222.75
  L 110.05 221.81
  Q 110.06 221.31 110.53 221.18
  L 111.00 221.04"
/>
<path stroke="#efd4fa" vector-effect="non-scaling-stroke" d="
  M 111.00 221.04
  L 120.44 221.07"
/>
<path stroke="#bb91d1" stroke-opacity="0.976" vector-effect="non-scaling-stroke" d="
  M 120.44 221.07
  C 120.83 223.03 121.68 220.91 121.66 220.24
  Q 121.50 214.65 121.36 209.07
  A 0.63 0.60 64.5 0 1 121.50 208.65
  Q 121.62 208.50 121.75 208.35
  Q 122.06 207.97 121.57 207.96
  L 121.25 207.96"
/>
<path stroke="#efd4fa" vector-effect="non-scaling-stroke" d="
  M 121.25 207.96
  C 140.64 204.77 152.03 195.33 149.24 174.23
  C 147.03 157.46 126.34 151.71 112.95 147.29
  A 1.38 1.36 -6.1 0 1 112.21 146.70
  C 110.51 143.92 112.45 143.27 113.77 141.35
  Q 114.01 140.98 114.45 140.99
  C 117.77 141.03 124.00 140.59 123.82 145.56
  A 0.60 0.60 0.0 0 0 124.38 146.18
  L 125.75 146.29"
/>
<path stroke="#bb91d1" stroke-opacity="0.976" vector-effect="non-scaling-stroke" d="
  M 125.75 146.29
  Q 125.62 146.93 125.81 147.57
  Q 125.95 148.05 126.46 148.03
  Q 135.36 147.64 144.26 147.50
  C 145.37 147.48 146.12 146.83 147.05 146.88
  Q 148.51 146.96 148.50 145.50
  L 148.38 127.39
  A 3.36 3.35 -80.2 0 0 146.19 124.27
  Q 134.31 119.86 121.71 118.52
  Q 121.19 118.46 121.19 117.94
  L 121.18 107.22"
/>
<path stroke="#efd4fa" vector-effect="non-scaling-stroke" d="
  M 121.18 107.22
  L 110.78 106.78"
/>
<path stroke="#e9c4fa" vector-effect="non-scaling-stroke" d="
  M 110.78 106.78
  Q 110.39 105.81 110.54 105.00"
/>
<path stroke="#bb91d1" stroke-opacity="0.976" vector-effect="non-scaling-stroke" d="
  M 110.54 105.00
  Q 110.69 105.02 110.82 105.01
  Q 111.14 104.99 111.13 104.67
  L 110.65 59.98"
/>
<path stroke="#e9c4fa" vector-effect="non-scaling-stroke" d="
  M 110.65 59.98
  L 110.22 51.44"
/>
<path stroke="#bb91d1" stroke-opacity="0.976" vector-effect="non-scaling-stroke" d="
  M 110.22 51.44
  Q 110.67 51.52 110.46 50.50"
/>
<path stroke="#bb91d1" stroke-opacity="0.976" vector-effect="non-scaling-stroke" d="
  M 110.54 48.50
  L 110.96 21.64
  Q 110.97 21.15 111.15 20.70
  Q 111.55 19.76 110.73 18.95"
/>
<path stroke="#e9c4fa" vector-effect="non-scaling-stroke" d="
  M 110.73 18.95
  Q 110.93 18.18 109.98 17.84"
/>
<path stroke="#ccbed7" stroke-opacity="0.976" vector-effect="non-scaling-stroke" d="
  M 121.18 107.22
  Q 119.52 113.34 120.00 119.48
  Q 120.03 119.87 120.41 119.81
  Q 122.49 119.48 125.57 119.93
  Q 136.16 121.48 145.99 125.25
  Q 147.12 125.68 147.14 126.89
  L 147.41 145.06
  Q 147.42 146.11 146.37 146.12
  L 125.75 146.29"
/>
<path stroke="#ccbed7" stroke-opacity="0.976" vector-effect="non-scaling-stroke" d="
  M 121.25 207.96
  L 120.43 208.28
  Q 120.01 208.44 120.03 208.89
  L 120.44 221.07"
/>
<path stroke="#efd4fa" vector-effect="non-scaling-stroke" d="
  M 111.25 186.21
  C 115.34 186.20 118.42 182.43 114.67 179.41
  Q 113.24 178.27 111.26 177.63"
/>
<path stroke="#c6add6" stroke-opacity="0.976" vector-effect="non-scaling-stroke" d="
  M 110.73 18.95
  L 110.29 47.50"
/>
<path stroke="#c6add6" stroke-opacity="0.976" vector-effect="non-scaling-stroke" d="
  M 109.71 49.75
  Q 108.61 50.28 107.32 50.35
  Q 106.09 50.42 107.29 50.71
  L 110.22 51.44"
/>
<path stroke="#c6add6" stroke-opacity="0.976" vector-effect="non-scaling-stroke" d="
  M 110.65 59.98
  Q 109.71 82.52 110.54 105.00"
/>
<path stroke="#faefff" vector-effect="non-scaling-stroke" d="
  M 110.78 106.78
  Q 108.57 106.66 106.72 107.41
  Q 106.24 107.61 106.22 108.14
  L 105.92 119.32
  Q 105.91 119.80 105.43 119.87
  C 90.69 121.88 79.04 127.26 77.89 143.68
  C 76.38 165.16 94.06 171.71 111.26 177.63"
/>
<path stroke="#e9c4fa" vector-effect="non-scaling-stroke" d="
  M 111.26 177.63
  Q 108.30 182.13 111.25 186.21"
/>
<path stroke="#faefff" vector-effect="non-scaling-stroke" d="
  M 111.25 186.21
  Q 108.40 186.61 105.65 185.61
  C 103.52 184.84 103.71 182.41 102.88 180.76
  A 0.91 0.91 0.0 0 0 102.06 180.25
  L 79.38 180.25
  A 0.68 0.68 0.0 0 0 78.70 180.93
  L 78.77 201.77
  A 0.70 0.70 0.0 0 0 79.24 202.42
  Q 91.88 206.84 105.22 207.70
  A 0.80 0.79 1.6 0 1 105.97 208.48
  L 106.10 219.94
  A 1.06 1.06 0.0 0 0 107.15 220.99
  L 111.00 221.04"
/>
<path stroke="#c6add6" stroke-opacity="0.976" vector-effect="non-scaling-stroke" d="
  M 110.04 222.75
  L 110.25 261.56"
/>
<path stroke="#c6add6" stroke-opacity="0.976" vector-effect="non-scaling-stroke" d="
  M 78.75 56.46
  Q 86.91 54.00 95.25 52.26
  C 97.30 51.83 99.17 52.70 101.32 51.77
  A 0.39 0.39 0.0 0 0 101.13 51.03
  Q 90.32 52.01 79.93 55.53
  Q 79.26 55.75 78.50 55.79"
/>
</g>
<path fill="#dea8f5" d="
  M 10.21 132.50
  Q 10.51 133.14 11.15 133.61
  Q 11.57 133.92 11.47 134.43
  Q 9.51 144.27 8.51 154.25
  C 8.27 156.64 8.82 159.41 8.29 162.46
  Q 7.30 168.10 8.53 173.73
  C 8.80 174.99 8.29 177.27 8.47 178.83
  C 13.03 218.50 37.76 248.87 77.52 257.47
  Q 95.04 261.26 110.25 261.56
  Q 112.18 246.86 111.48 239.00
  Q 110.77 231.09 110.69 223.13
  A 0.35 0.35 0.0 0 0 110.36 222.78
  L 110.04 222.75
  L 110.05 221.81
  Q 110.06 221.31 110.53 221.18
  L 111.00 221.04
  L 120.44 221.07
  C 120.83 223.03 121.68 220.91 121.66 220.24
  Q 121.50 214.65 121.36 209.07
  A 0.63 0.60 64.5 0 1 121.50 208.65
  Q 121.62 208.50 121.75 208.35
  Q 122.06 207.97 121.57 207.96
  L 121.25 207.96
  C 140.64 204.77 152.03 195.33 149.24 174.23
  C 147.03 157.46 126.34 151.71 112.95 147.29
  A 1.38 1.36 -6.1 0 1 112.21 146.70
  C 110.51 143.92 112.45 143.27 113.77 141.35
  Q 114.01 140.98 114.45 140.99
  C 117.77 141.03 124.00 140.59 123.82 145.56
  A 0.60 0.60 0.0 0 0 124.38 146.18
  L 125.75 146.29
  Q 125.62 146.93 125.81 147.57
  Q 125.95 148.05 126.46 148.03
  Q 135.36 147.64 144.26 147.50
  C 145.37 147.48 146.12 146.83 147.05 146.88
  Q 148.51 146.96 148.50 145.50
  L 148.38 127.39
  A 3.36 3.35 -80.2 0 0 146.19 124.27
  Q 134.31 119.86 121.71 118.52
  Q 121.19 118.46 121.19 117.94
  L 121.18 107.22
  L 110.78 106.78
  Q 110.39 105.81 110.54 105.00
  Q 110.69 105.02 110.82 105.01
  Q 111.14 104.99 111.13 104.67
  L 110.65 59.98
  L 110.22 51.44
  Q 110.67 51.52 110.46 50.50
  L 110.54 48.50
  L 110.96 21.64
  Q 110.97 21.15 111.15 20.70
  Q 111.55 19.76 110.73 18.95
  Q 110.93 18.18 109.98 17.84
  C 112.40 17.15 114.54 16.75 116.30 14.78
  C 118.45 12.36 120.01 8.91 123.91 8.93
  Q 131.42 8.97 138.35 11.86
  C 145.28 14.75 144.49 8.58 147.40 5.44
  C 152.79 -0.36 172.12 12.91 176.74 16.75
  A 0.73 0.72 29.3 0 1 176.97 17.54
  Q 168.50 43.29 144.96 56.41
  Q 144.53 56.64 144.98 56.84
  Q 176.33 70.24 195.02 98.73
  C 234.27 158.52 223.53 249.55 142.26 266.53
  Q 101.83 274.98 61.25 261.48
  Q 55.71 259.64 53.97 258.54
  Q 48.15 254.90 42.44 251.08
  C 4.73 225.86 -3.98 172.15 10.21 132.50
  Z"
/>
<path fill="#f4dffe" d="
  M 109.98 17.84
  Q 110.93 18.18 110.73 18.95
  L 110.29 47.50
  L 109.71 49.75
  Q 108.61 50.28 107.32 50.35
  Q 106.09 50.42 107.29 50.71
  L 110.22 51.44
  L 110.65 59.98
  Q 109.71 82.52 110.54 105.00
  Q 110.39 105.81 110.78 106.78
  Q 108.57 106.66 106.72 107.41
  Q 106.24 107.61 106.22 108.14
  L 105.92 119.32
  Q 105.91 119.80 105.43 119.87
  C 90.69 121.88 79.04 127.26 77.89 143.68
  C 76.38 165.16 94.06 171.71 111.26 177.63
  Q 108.30 182.13 111.25 186.21
  Q 108.40 186.61 105.65 185.61
  C 103.52 184.84 103.71 182.41 102.88 180.76
  A 0.91 0.91 0.0 0 0 102.06 180.25
  L 79.38 180.25
  A 0.68 0.68 0.0 0 0 78.70 180.93
  L 78.77 201.77
  A 0.70 0.70 0.0 0 0 79.24 202.42
  Q 91.88 206.84 105.22 207.70
  A 0.80 0.79 1.6 0 1 105.97 208.48
  L 106.10 219.94
  A 1.06 1.06 0.0 0 0 107.15 220.99
  L 111.00 221.04
  L 110.53 221.18
  Q 110.06 221.31 110.05 221.81
  L 110.04 222.75
  L 110.25 261.56
  Q 95.04 261.26 77.52 257.47
  C 37.76 248.87 13.03 218.50 8.47 178.83
  C 8.29 177.27 8.80 174.99 8.53 173.73
  Q 7.30 168.10 8.29 162.46
  C 8.82 159.41 8.27 156.64 8.51 154.25
  Q 9.51 144.27 11.47 134.43
  Q 11.57 133.92 11.15 133.61
  Q 10.51 133.14 10.21 132.50
  Q 14.75 118.50 22.03 105.79
  Q 24.69 101.15 29.31 95.78
  Q 33.51 90.90 37.61 85.93
  C 48.73 72.44 62.38 62.73 78.75 56.46
  Q 86.91 54.00 95.25 52.26
  C 97.30 51.83 99.17 52.70 101.32 51.77
  A 0.39 0.39 0.0 0 0 101.13 51.03
  Q 90.32 52.01 79.93 55.53
  Q 79.26 55.75 78.50 55.79
  C 63.57 47.09 56.05 34.05 49.74 18.54
  Q 49.55 18.08 50.04 17.98
  C 63.54 15.13 74.57 9.05 87.39 4.66
  Q 87.86 4.50 88.32 4.67
  Q 90.14 5.35 90.83 6.17
  C 95.92 12.12 102.41 17.10 109.98 17.84
  Z"
/>
<path fill="#9679ac" fill-opacity="0.953" d="
  M 110.73 18.95
  Q 111.55 19.76 111.15 20.70
  Q 110.97 21.15 110.96 21.64
  L 110.54 48.50
  L 110.29 47.50
  L 110.73 18.95
  Z"
/>
<path fill="#9679ac" fill-opacity="0.953" d="
  M 109.71 49.75
  Q 109.74 49.93 109.76 50.12
  Q 109.81 50.44 110.14 50.47
  Q 110.30 50.48 110.46 50.50
  Q 110.67 51.52 110.22 51.44
  L 107.29 50.71
  Q 106.09 50.42 107.32 50.35
  Q 108.61 50.28 109.71 49.75
  Z"
/>
<path fill="#9679ac" fill-opacity="0.953" d="
  M 78.75 56.46
  L 78.50 55.79
  Q 79.26 55.75 79.93 55.53
  Q 90.32 52.01 101.13 51.03
  A 0.39 0.39 0.0 0 1 101.32 51.77
  C 99.17 52.70 97.30 51.83 95.25 52.26
  Q 86.91 54.00 78.75 56.46
  Z"
/>
<path fill="#9679ac" fill-opacity="0.953" d="
  M 110.65 59.98
  L 111.13 104.67
  Q 111.14 104.99 110.82 105.01
  Q 110.69 105.02 110.54 105.00
  Q 109.71 82.52 110.65 59.98
  Z"
/>
<path fill="#ffffff" d="
  M 110.78 106.78
  L 121.18 107.22
  Q 119.52 113.34 120.00 119.48
  Q 120.03 119.87 120.41 119.81
  Q 122.49 119.48 125.57 119.93
  Q 136.16 121.48 145.99 125.25
  Q 147.12 125.68 147.14 126.89
  L 147.41 145.06
  Q 147.42 146.11 146.37 146.12
  L 125.75 146.29
  L 124.38 146.18
  A 0.60 0.60 0.0 0 1 123.82 145.56
  C 124.00 140.59 117.77 141.03 114.45 140.99
  Q 114.01 140.98 113.77 141.35
  C 112.45 143.27 110.51 143.92 112.21 146.70
  A 1.38 1.36 -6.1 0 0 112.95 147.29
  C 126.34 151.71 147.03 157.46 149.24 174.23
  C 152.03 195.33 140.64 204.77 121.25 207.96
  L 120.43 208.28
  Q 120.01 208.44 120.03 208.89
  L 120.44 221.07
  L 111.00 221.04
  L 107.15 220.99
  A 1.06 1.06 0.0 0 1 106.10 219.94
  L 105.97 208.48
  A 0.80 0.79 1.6 0 0 105.22 207.70
  Q 91.88 206.84 79.24 202.42
  A 0.70 0.70 0.0 0 1 78.77 201.77
  L 78.70 180.93
  A 0.68 0.68 0.0 0 1 79.38 180.25
  L 102.06 180.25
  A 0.91 0.91 0.0 0 1 102.88 180.76
  C 103.71 182.41 103.52 184.84 105.65 185.61
  Q 108.40 186.61 111.25 186.21
  C 115.34 186.20 118.42 182.43 114.67 179.41
  Q 113.24 178.27 111.26 177.63
  C 94.06 171.71 76.38 165.16 77.89 143.68
  C 79.04 127.26 90.69 121.88 105.43 119.87
  Q 105.91 119.80 105.92 119.32
  L 106.22 108.14
  Q 106.24 107.61 106.72 107.41
  Q 108.57 106.66 110.78 106.78
  Z"
/>
<path fill="#9679ac" fill-opacity="0.953" d="
  M 121.18 107.22
  L 121.19 117.94
  Q 121.19 118.46 121.71 118.52
  Q 134.31 119.86 146.19 124.27
  A 3.36 3.35 -80.2 0 1 148.38 127.39
  L 148.50 145.50
  Q 148.51 146.96 147.05 146.88
  C 146.12 146.83 145.37 147.48 144.26 147.50
  Q 135.36 147.64 126.46 148.03
  Q 125.95 148.05 125.81 147.57
  Q 125.62 146.93 125.75 146.29
  L 146.37 146.12
  Q 147.42 146.11 147.41 145.06
  L 147.14 126.89
  Q 147.12 125.68 145.99 125.25
  Q 136.16 121.48 125.57 119.93
  Q 122.49 119.48 120.41 119.81
  Q 120.03 119.87 120.00 119.48
  Q 119.52 113.34 121.18 107.22
  Z"
/>
<path fill="#dea8f5" d="
  M 111.26 177.63
  Q 113.24 178.27 114.67 179.41
  C 118.42 182.43 115.34 186.20 111.25 186.21
  Q 108.30 182.13 111.26 177.63
  Z"
/>
<path fill="#9679ac" fill-opacity="0.953" d="
  M 121.25 207.96
  L 121.57 207.96
  Q 122.06 207.97 121.75 208.35
  Q 121.62 208.50 121.50 208.65
  A 0.63 0.60 64.5 0 0 121.36 209.07
  Q 121.50 214.65 121.66 220.24
  C 121.68 220.91 120.83 223.03 120.44 221.07
  L 120.03 208.89
  Q 120.01 208.44 120.43 208.28
  L 121.25 207.96
  Z"
/>
<path fill="#9679ac" fill-opacity="0.953" d="
  M 110.04 222.75
  L 110.36 222.78
  A 0.35 0.35 0.0 0 1 110.69 223.13
  Q 110.77 231.09 111.48 239.00
  Q 112.18 246.86 110.25 261.56
  L 110.04 222.75
  Z"
/>
</svg>
