<?xml version="1.0" encoding="UTF-8" standalone="no"?>
<svg xmlns="http://www.w3.org/2000/svg" version="1.2" baseProfile="tiny" viewBox="0.00 0.00 263.00 264.00">
<path fill="#f2dcff" d="
  M 259.39 131.79
  A 127.84 127.84 0.0 0 1 131.55 259.63
  A 127.84 127.84 0.0 0 1 3.71 131.79
  A 127.84 127.84 0.0 0 1 131.55 3.95
  A 127.84 127.84 0.0 0 1 259.39 131.79
  Z
  M 77.68 105.39
  L 62.64 89.98
  A 0.61 0.61 0.0 0 0 61.61 90.29
  L 48.24 158.68
  Q 48.12 159.27 48.71 159.16
  L 116.30 146.03
  A 0.80 0.80 0.0 0 0 116.85 144.86
  C 116.55 144.30 116.28 143.67 115.80 143.21
  Q 108.90 136.60 102.62 130.16
  A 1.80 1.80 0.0 0 1 102.47 127.83
  Q 115.91 109.89 131.77 95.30
  C 150.47 78.12 171.82 71.31 194.93 85.81
  Q 200.59 89.36 195.81 84.70
  C 192.64 81.61 188.34 77.75 184.59 75.29
  C 148.35 51.52 106.74 84.29 78.94 105.48
  A 0.96 0.96 0.0 0 1 77.68 105.39
  Z
  M 145.62 118.85
  L 160.84 134.52
  Q 161.11 134.79 160.87 135.09
  C 144.02 156.63 126.37 179.32 102.32 184.68
  Q 94.81 186.35 87.25 184.95
  Q 77.85 183.21 69.20 178.33
  A 0.82 0.82 0.0 0 0 68.20 179.61
  C 81.08 193.27 98.26 199.16 117.01 195.16
  C 141.60 189.90 164.81 173.83 183.74 157.83
  A 0.45 0.45 0.0 0 1 184.36 157.85
  L 200.31 173.76
  A 0.54 0.54 0.0 0 0 201.22 173.48
  L 214.43 105.34
  A 0.75 0.74 -0.3 0 0 213.55 104.47
  L 146.00 117.65
  A 0.72 0.72 0.0 0 0 145.62 118.85
  Z"
/>
</svg>
